<svg width="955" height="473" viewBox="0 0 955 473" fill="none" xmlns="http://www.w3.org/2000/svg">
<g id="undraw_Bus_stop_re_h8ej 1" clip-path="url(#clip0)">
<rect width="955" height="473" fill="#DAEBF4"/>
<g id="trees">
<path id="Vector" d="M182.861 142.429C182.861 144.066 182.809 145.698 182.705 147.309C182.109 156.625 179.772 165.743 175.817 174.185C175.784 174.257 175.751 174.329 175.719 174.394C175.537 174.788 175.348 175.174 175.153 175.561C169.15 187.711 159.968 197.98 148.597 205.259C137.226 212.539 124.098 216.554 110.628 216.87L111.363 259.221L120.892 254.163L122.597 257.426L111.435 263.342L112.729 338.045L112.794 341.976H105.489L105.561 338.045L107.779 216.877C98.0175 216.736 88.3809 214.644 79.429 210.721C70.4771 206.798 62.3882 201.122 55.6322 194.024C55.1641 193.539 54.7086 193.041 54.2535 192.543C54.2338 192.524 54.2208 192.504 54.2078 192.491C48.5759 186.307 44.0215 179.21 40.7369 171.499C40.8084 171.584 40.8865 171.656 40.958 171.741C33.534 154.259 33.0296 134.578 39.5482 116.733C46.0669 98.8883 59.1148 84.2304 76.0177 75.764C76.2711 75.6396 76.5379 75.5148 76.7916 75.384C93.5107 67.2725 112.645 65.7845 130.402 71.215C148.159 76.6454 163.242 88.598 172.662 104.703C173.111 105.463 173.547 106.243 173.963 107.023C179.816 117.891 182.875 130.063 182.861 142.429V142.429Z" fill="#598C51"/>
<path id="Vector_2" d="M939.098 92.9867C939.098 95.0331 939.033 97.071 938.903 99.0846C938.159 110.723 935.239 122.115 930.297 132.661C930.257 132.751 930.216 132.842 930.176 132.923C929.948 133.414 929.713 133.898 929.469 134.38C921.969 149.56 910.498 162.389 896.291 171.484C882.085 180.579 865.683 185.594 848.855 185.989L849.773 238.9L861.678 232.581L863.807 236.658L849.862 244.049L851.48 337.379L851.561 342.291H842.435L842.524 337.379L845.295 185.998C833.1 185.823 821.06 183.209 809.876 178.307C798.692 173.406 788.587 166.315 780.146 157.447C779.561 156.841 778.992 156.219 778.424 155.597C778.399 155.573 778.383 155.548 778.366 155.531C771.33 147.806 765.64 138.94 761.537 129.305C761.626 129.412 761.724 129.502 761.813 129.608C752.538 107.767 751.908 83.1789 760.052 60.8844C768.196 38.5899 784.497 20.2773 805.614 9.69985C805.931 9.54437 806.264 9.38849 806.581 9.22502C827.469 -0.909037 851.375 -2.76804 873.559 4.01652C895.744 10.8011 914.588 25.7339 926.356 45.8549C926.917 46.8042 927.462 47.7786 927.981 48.7526C935.295 62.3315 939.116 77.5385 939.098 92.9867V92.9867Z" fill="#598C51"/>
</g>
<g id="dog-walker">
<path id="Vector_3" d="M102.076 248.959L101.446 249.377L148.857 321.73L149.487 321.311L102.076 248.959Z" fill="#2F2E41"/>
<path id="Vector_4" d="M73.66 337.677H78.286L80.487 319.702H73.659L73.66 337.677Z" fill="#A0616A"/>
<path id="Vector_5" d="M43.424 333.217L47.772 334.81L55.943 318.679L49.527 316.326L43.424 333.217Z" fill="#A0616A"/>
<path id="Vector_6" d="M42.8319 331.38L51.3935 334.519L51.3938 334.519C52.8408 335.05 54.0192 336.138 54.67 337.543C55.3207 338.949 55.3904 340.558 54.8638 342.015L54.7993 342.194L40.7816 337.055L42.8319 331.38Z" fill="#2F2E41"/>
<path id="Vector_7" d="M72.3411 214.966L82.1524 218.007L90.077 231.31L87.0581 246.895L85.5487 260.578V321.395C85.5487 321.395 73.9367 324.435 68.9879 321.395L70.8316 286.045L58.3788 323.675L44.4164 318.354L60.2655 265.52C60.0106 261.613 60.6597 257.699 62.1619 254.088C63.5216 250.872 65.909 248.207 68.9449 246.515V243.474L65.9259 224.088L72.3411 214.966Z" fill="#2F2E41"/>
<path id="Vector_8" d="M79.7779 213.431C84.8966 213.431 89.0462 209.252 89.0462 204.096C89.0462 198.94 84.8966 194.76 79.7779 194.76C74.6591 194.76 70.5095 198.94 70.5095 204.096C70.5095 209.252 74.6591 213.431 79.7779 213.431Z" fill="#A0616A"/>
<path id="Vector_9" d="M88.7251 201.662C87.4705 201.409 86.1691 201.558 85.0024 202.087C83.8357 202.616 82.862 203.498 82.217 204.611C81.8988 203.43 80.0069 203.49 79.3068 204.491C79.0241 205.033 78.8505 205.626 78.7959 206.236C78.7413 206.847 78.8068 207.461 78.9887 208.046C79.3572 209.221 79.3337 210.486 78.9217 211.646C78.6275 212.156 78.2046 212.577 77.696 212.869C77.1874 213.16 76.6113 213.311 76.0262 213.305C74.8528 213.276 73.7119 212.91 72.7379 212.251C70.9233 211.126 69.4724 209.495 68.5616 207.555C67.6507 205.615 67.3192 203.45 67.6075 201.323C67.8957 199.197 68.7912 197.201 70.185 195.578C71.5788 193.955 73.4109 192.775 75.4583 192.181C77.7853 191.64 80.186 191.495 82.5605 191.754C84.5 191.757 86.4246 192.096 88.2499 192.757C89.1598 193.097 89.9728 193.657 90.6172 194.388C91.2617 195.119 91.7178 195.998 91.9455 196.949C92.2743 198.87 91.1579 202.311 89.2297 202.479" fill="#2F2E41"/>
<path id="Vector_10" d="M74.1165 193.493C74.9568 193.353 75.7724 193.09 76.5376 192.713C76.916 192.525 77.2488 192.256 77.5122 191.924C77.7757 191.592 77.9634 191.206 78.062 190.793C78.1396 190.381 78.0626 189.955 77.8457 189.597C77.6288 189.239 77.2877 188.975 76.8885 188.856C76.2773 188.805 75.6631 188.908 75.1007 189.154C74.8208 189.275 74.5153 189.322 74.2123 189.293C73.9093 189.263 73.6185 189.157 73.3668 188.985C72.8682 188.514 72.9876 187.663 72.5614 187.128C72.3325 186.896 72.0388 186.739 71.7195 186.68C71.4001 186.62 71.0703 186.66 70.7741 186.794C70.1825 187.072 69.6543 187.469 69.2229 187.963L66.9389 190.241C66.4946 190.685 66.0136 191.235 66.1266 191.84C66.2309 192.151 66.445 192.413 66.7281 192.575C67.0113 192.738 67.3438 192.79 67.6626 192.722C68.3085 192.572 68.9079 192.264 69.4081 191.826C68.6917 192.275 68.1148 192.918 67.7428 193.681C67.5652 194.057 67.4941 194.475 67.5375 194.889C67.5808 195.303 67.7369 195.697 67.9886 196.028C68.8042 196.975 70.3506 196.845 71.5378 196.372C73.1069 195.747 74.4654 194.682 75.4526 193.304" fill="#2F2E41"/>
<path id="Vector_11" d="M74.1353 190.73C72.1231 190.364 70.2108 189.572 68.5245 188.407C67.0714 187.257 66.3478 185.569 67.1725 184.15C66.7562 184.87 66.5551 185.695 66.5933 186.528C66.6315 187.36 66.9074 188.163 67.3878 188.841C68.6409 190.466 70.4411 191.573 72.4488 191.953C72.8724 192.085 73.3261 192.084 73.749 191.949C74.1259 191.78 74.1381 191.283 73.699 191.219" fill="#2F2E41"/>
<path id="Vector_12" d="M100.11 245.687C99.9294 245.791 99.7569 245.91 99.5944 246.042L81.7289 240.429L80.7242 235.963L73.8342 236.609L74.85 244.69C74.9321 245.343 75.2222 245.951 75.6767 246.424C76.1313 246.896 76.7258 247.208 77.3709 247.311L98.398 250.679C98.7043 251.428 99.2298 252.065 99.9046 252.507C100.579 252.948 101.372 253.171 102.176 253.148C102.98 253.124 103.758 252.855 104.406 252.375C105.054 251.895 105.542 251.228 105.805 250.462C106.068 249.697 106.093 248.868 105.876 248.088C105.66 247.307 105.214 246.612 104.595 246.093C103.977 245.575 103.217 245.258 102.416 245.186C101.615 245.113 100.811 245.288 100.11 245.687V245.687Z" fill="#A0616A"/>
<path id="Vector_13" d="M73.0958 221.428C73.0958 221.428 74.7099 216.782 79.5632 217.204C84.4166 217.627 81.7751 236.252 81.7751 236.252L72.3411 249.175L73.0958 221.428Z" fill="#2F2E41"/>
<path id="Vector_14" d="M127.004 337.246L123.629 329.973L128.844 327.518L132.219 334.791V334.791C132.542 335.488 132.577 336.285 132.317 337.008C132.056 337.731 131.521 338.32 130.83 338.645C130.138 338.971 129.346 339.006 128.629 338.744C127.911 338.481 127.327 337.943 127.004 337.246H127.004Z" fill="#3F3D56"/>
<path id="Vector_15" d="M115.393 321.682C117.35 321.682 118.936 320.085 118.936 318.114C118.936 316.144 117.35 314.546 115.393 314.546C113.437 314.546 111.851 316.144 111.851 318.114C111.851 320.085 113.437 321.682 115.393 321.682Z" fill="#3F3D56"/>
<path id="Vector_16" d="M142.522 338.699L139.148 331.426L144.363 328.971L147.737 336.244C148.06 336.941 148.095 337.738 147.835 338.461C147.574 339.184 147.04 339.773 146.348 340.098C145.657 340.424 144.865 340.459 144.147 340.197C143.43 339.935 142.845 339.396 142.522 338.699V338.699Z" fill="#3F3D56"/>
<path id="Vector_17" d="M115.403 325.334C115.59 323.333 116.557 321.488 118.093 320.204C119.629 318.92 121.607 318.303 123.595 318.487L147.321 320.708C148.161 320.788 148.935 321.2 149.474 321.854C150.012 322.508 150.271 323.35 150.194 324.196L149.943 326.916C149.716 329.351 148.538 331.597 146.669 333.159C144.8 334.722 142.392 335.474 139.973 335.25L122.201 333.586C120.214 333.397 118.383 332.423 117.108 330.876C115.834 329.329 115.22 327.336 115.403 325.334V325.334Z" fill="#3F3D56"/>
<path id="Vector_18" d="M119.802 337.469L120.539 329.475L126.271 330.012L125.533 338.006C125.462 338.771 125.092 339.476 124.505 339.967C123.917 340.457 123.161 340.693 122.401 340.622C121.641 340.55 120.941 340.178 120.453 339.587C119.966 338.996 119.731 338.234 119.802 337.469V337.469Z" fill="#3F3D56"/>
<path id="Vector_19" d="M136.433 339.026L137.171 331.033L142.902 331.569L142.164 339.563C142.094 340.329 141.724 341.034 141.137 341.526C140.549 342.017 139.792 342.252 139.032 342.181C138.272 342.11 137.571 341.738 137.084 341.146C136.596 340.554 136.362 339.792 136.433 339.026V339.026Z" fill="#3F3D56"/>
<path id="Vector_20" d="M162.671 309.584C163.325 308.904 164.22 308.514 165.159 308.498C166.098 308.483 167.005 308.845 167.68 309.503C168.355 310.161 168.743 311.063 168.758 312.009C168.773 312.955 168.414 313.869 167.761 314.548L161.292 321.276L156.203 316.312L162.671 309.584Z" fill="#3F3D56"/>
<path id="Vector_21" d="M147.384 322.6L152.566 317.209C153.826 315.902 155.549 315.152 157.357 315.122C159.166 315.093 160.912 315.788 162.213 317.054L163.556 318.364C165.103 319.877 165.992 321.946 166.026 324.118C166.061 326.29 165.239 328.387 163.74 329.949L159.47 334.39C158.999 334.88 158.354 335.161 157.677 335.172C156.999 335.182 156.346 334.922 155.859 334.448L147.441 326.238C146.955 325.763 146.676 325.113 146.666 324.431C146.655 323.749 146.913 323.09 147.384 322.6V322.6Z" fill="#3F3D56"/>
<path id="Vector_22" d="M163.441 308.783C163.664 308.551 163.929 308.365 164.223 308.237C164.517 308.109 164.832 308.04 165.152 308.034C165.472 308.029 165.79 308.087 166.088 308.206C166.386 308.324 166.657 308.501 166.887 308.725C167.117 308.949 167.301 309.217 167.428 309.513C167.555 309.809 167.623 310.127 167.628 310.449C167.633 310.772 167.575 311.092 167.457 311.392C167.339 311.691 167.163 311.965 166.94 312.196L159.701 319.725L156.203 316.312L163.441 308.783Z" fill="#3F3D56"/>
<path id="Vector_23" d="M152.892 321.513L162.116 330.511C162.451 330.837 162.719 331.226 162.904 331.656C163.089 332.086 163.189 332.549 163.197 333.018C163.204 333.487 163.12 333.953 162.949 334.389C162.778 334.825 162.523 335.223 162.199 335.56C161.876 335.897 161.489 336.166 161.062 336.352C160.634 336.538 160.175 336.638 159.709 336.645C159.244 336.652 158.782 336.567 158.349 336.394C157.916 336.221 157.521 335.964 157.187 335.638L147.963 326.64L152.892 321.513Z" fill="#3F3D56"/>
<path id="Vector_24" d="M162.599 335.86C163.173 335.263 163.371 334.518 163.042 334.197C162.713 333.875 161.98 334.099 161.406 334.696C160.832 335.293 160.633 336.038 160.963 336.359C161.292 336.681 162.025 336.457 162.599 335.86Z" fill="#6C63FF"/>
<path id="Vector_25" d="M148.379 330.327H150.266V319.684H148.379V330.327Z" fill="#2F2E41"/>
<path id="Vector_26" d="M72.48 336.155L81.591 336.155H81.5914C83.1312 336.155 84.608 336.771 85.6969 337.868C86.7857 338.965 87.3975 340.452 87.3976 342.003V342.193L72.4803 342.194L72.48 336.155Z" fill="#2F2E41"/>
</g>
<g id="girl-legs">
<path id="Path 630" d="M516.515 322.154H511.543L509.177 302.839H516.515L516.515 322.154Z" fill="#FEB8B8"/>
<path id="Path 631" d="M507.993 320.723H517.581V326.803H501.956C501.956 326.005 502.112 325.214 502.416 324.476C502.719 323.739 503.164 323.068 503.724 322.504C504.285 321.939 504.95 321.491 505.683 321.186C506.415 320.88 507.2 320.723 507.993 320.723V320.723Z" fill="#2F2E41"/>
<path id="Path 632" d="M508.755 319.359L504.012 317.86L507.496 298.717L514.496 300.93L508.755 319.359Z" fill="#FEB8B8"/>
<path id="Path 633" d="M501.046 315.424L510.194 318.316L508.386 324.118L493.479 319.405C493.958 317.867 495.025 316.583 496.444 315.836C497.863 315.09 499.519 314.941 501.046 315.424L501.046 315.424Z" fill="#2F2E41"/>
<path id="Path 634" d="M510.372 311.652C510.155 311.652 509.94 311.612 509.736 311.535L506.078 310.154C505.667 309.997 505.326 309.697 505.116 309.309C504.907 308.92 504.843 308.469 504.936 308.037C505.857 303.866 508.996 289.668 510.714 282.053C512.752 273.02 542.483 271.341 543.747 271.274L543.851 271.269L547.196 275.5C548.404 279.413 548.021 282.465 546.057 284.571C540.326 290.717 523.216 286.904 521.176 286.421L512.082 310.468C511.949 310.816 511.715 311.116 511.41 311.327C511.105 311.538 510.743 311.652 510.373 311.652H510.372Z" fill="#2F2E41"/>
<path id="Path 635" d="M515.644 314.511C515.427 314.511 515.211 314.471 515.008 314.394L511.35 313.013C510.94 312.857 510.599 312.557 510.389 312.168C510.18 311.779 510.116 311.328 510.209 310.896C511.13 306.725 514.268 292.527 515.987 284.912C518.025 275.879 547.755 274.2 549.02 274.133L549.124 274.128L552.467 278.361C553.676 282.273 553.292 285.325 551.329 287.432C545.598 293.576 528.487 289.764 526.447 289.281L517.352 313.327C517.22 313.675 516.985 313.975 516.68 314.186C516.375 314.398 516.014 314.511 515.644 314.511L515.644 314.511Z" fill="#2F2E41"/>
</g>
<g id="bus-stop">
<path id="Vector_27" d="M237.47 43.5916C236.53 43.7406 235.673 44.2236 235.054 44.9533C234.436 45.683 234.097 46.6114 234.098 47.5708V344.305H254.098V81.4089H694.098V345.313H714.098V48.5048C714.103 47.5604 713.777 46.6446 713.178 45.9182C712.578 45.1919 711.744 44.7015 710.821 44.5332C476.098 3.84934 265.572 39.1427 237.47 43.5916Z" fill="#306697"/>
<path id="Vector_28" d="M440 288V297.065H472V342.392H485V297.065H615V342.392H628V297.065H660V288H440Z" fill="#5A2222"/>
<path id="Vector_29" d="M420.098 97.5251H274.098V298.978H420.098V97.5251Z" fill="#E5E5E5"/>
<path id="Vector_30" d="M406.228 116.663H287.968V279.84H406.228V116.663Z" fill="white"/>
<path id="Vector_31" d="M562.098 81.4088H550.098V289.913H562.098V81.4088Z" fill="#240C0C"/>
<rect id="Rectangle 92" x="1" y="357" width="954" height="116" fill="#383846"/>
<rect id="Rectangle 93" x="1" y="343" width="954" height="18" fill="#BEB293"/>
<path id="Vector_32" d="M954 344.305H1C0.734784 344.305 0.480429 344.199 0.292892 344.01C0.105356 343.821 0 343.565 0 343.298C0 343.031 0.105356 342.775 0.292892 342.586C0.480429 342.397 0.734784 342.291 1 342.291H954C954.265 342.291 954.52 342.397 954.707 342.586C954.895 342.775 955 343.031 955 343.298C955 343.565 954.895 343.821 954.707 344.01C954.52 344.199 954.265 344.305 954 344.305Z" fill="#CCCCCC"/>
<path id="Vector_33" d="M543 466.185H460C459.735 466.185 459.48 466.078 459.293 465.89C459.105 465.701 459 465.444 459 465.177C459 464.91 459.105 464.654 459.293 464.465C459.48 464.276 459.735 464.17 460 464.17H543C543.265 464.17 543.52 464.276 543.707 464.465C543.895 464.654 544 464.91 544 465.177C544 465.444 543.895 465.701 543.707 465.89C543.52 466.078 543.265 466.185 543 466.185Z" fill="#CBCBCB"/>
<path id="Vector_34" d="M765 466.185H682C681.735 466.185 681.48 466.078 681.293 465.89C681.105 465.701 681 465.444 681 465.177C681 464.91 681.105 464.654 681.293 464.465C681.48 464.276 681.735 464.17 682 464.17H765C765.265 464.17 765.52 464.276 765.707 464.465C765.895 464.654 766 464.91 766 465.177C766 465.444 765.895 465.701 765.707 465.89C765.52 466.078 765.265 466.185 765 466.185Z" fill="#CBCBCB"/>
<path id="Vector_35" d="M119 466.185H36C35.7348 466.185 35.4804 466.078 35.2929 465.89C35.1054 465.701 35 465.444 35 465.177C35 464.91 35.1054 464.654 35.2929 464.465C35.4804 464.276 35.7348 464.17 36 464.17H119C119.265 464.17 119.52 464.276 119.707 464.465C119.895 464.654 120 464.91 120 465.177C120 465.444 119.895 465.701 119.707 465.89C119.52 466.078 119.265 466.185 119 466.185Z" fill="#CBCBCB"/>
<path id="Vector_36" d="M403.086 221.788C401.819 231.782 397.162 240.926 392.195 249.734C392.03 250.034 391.861 250.33 391.688 250.63H340.055C339.011 250.357 337.98 250.057 336.953 249.734C331.122 247.946 325.616 245.218 320.65 241.656C301.655 227.87 294.345 201.822 297.647 178.481C299.7 163.979 306.018 149.173 318.322 141.363C325.003 137.264 332.975 135.858 340.642 137.424C340.837 137.46 341.033 137.505 341.233 137.545C347.667 139.004 353.399 142.63 356.66 148.471C362.526 158.966 359.033 171.968 356.149 183.65C353.274 195.332 351.715 209.314 360.059 217.93C358.836 214.327 358.588 210.46 359.34 206.728C360.092 202.997 361.817 199.534 364.337 196.696C366.858 193.858 370.083 191.747 373.682 190.581C377.281 189.414 381.123 189.234 384.814 190.059C385.418 190.189 386.014 190.337 386.6 190.516C388.018 190.934 389.384 191.51 390.675 192.234C400.517 197.771 404.503 210.522 403.086 221.788Z" fill="#CA2020"/>
<path id="Vector_37" d="M372.47 249.734C373.901 250.07 375.336 250.365 376.78 250.63H368.973C367.951 250.352 366.933 250.057 365.925 249.734C363.707 249.036 361.524 248.235 359.375 247.331C350.658 243.766 342.918 238.145 336.807 230.941C333.869 227.415 331.469 223.467 329.688 219.228C327.757 214.436 326.53 209.387 326.045 204.238C324.956 193.676 326.067 182.822 328.142 172.447C330.283 161.694 333.74 151.25 338.433 141.354C338.997 140.168 339.581 138.989 340.184 137.818C340.225 137.722 340.288 137.636 340.367 137.568C340.447 137.5 340.54 137.451 340.641 137.424C340.847 137.384 341.059 137.428 341.232 137.545C341.441 137.666 341.595 137.862 341.663 138.093C341.732 138.325 341.71 138.574 341.601 138.79C336.763 148.294 333.095 158.359 330.679 168.759C328.191 178.96 327.099 189.456 327.431 199.955C327.866 209.703 330.395 219.29 336.131 227.262C341.477 234.507 348.508 240.318 356.607 244.184C361.672 246.626 366.993 248.487 372.47 249.734Z" fill="white"/>
<path id="Vector_38" d="M389.604 250.63H387.302C387.045 250.334 386.796 250.034 386.551 249.734C381.309 243.318 377.757 235.673 376.225 227.508C374.364 217.318 375.812 206.795 380.353 197.498C381.62 194.891 383.113 192.402 384.814 190.059C385.418 190.189 386.014 190.337 386.6 190.516C380.099 199.115 376.765 209.722 377.168 220.524C377.571 231.325 381.686 241.65 388.809 249.734C389.066 250.034 389.333 250.334 389.604 250.63Z" fill="white"/>
<path id="Ellipse 97" d="M544.771 235.737C551.042 235.737 556.125 230.617 556.125 224.301C556.125 217.985 551.042 212.864 544.771 212.864C538.501 212.864 533.417 217.985 533.417 224.301C533.417 230.617 538.501 235.737 544.771 235.737Z" fill="#2F2E41"/>
<path id="Path 636" d="M505.062 255.685C505.197 255.866 505.317 256.057 505.421 256.257L525.421 258.379L528.3 254.403L534.825 257.995L529.171 267.643L504.642 261.344C504.024 261.952 503.236 262.355 502.384 262.501C501.532 262.647 500.656 262.528 499.872 262.16C499.089 261.792 498.436 261.192 497.999 260.441C497.562 259.69 497.362 258.823 497.427 257.955C497.491 257.086 497.817 256.259 498.36 255.581C498.903 254.904 499.637 254.409 500.466 254.163C501.295 253.916 502.179 253.93 503 254.202C503.821 254.473 504.541 254.99 505.063 255.684L505.062 255.685Z" fill="#FEB8B8"/>
<path id="Path 637" d="M551.539 279.981C551.25 279.98 550.965 279.91 550.708 279.777C546.708 277.729 538.921 274.181 531.7 273.439C531.453 273.415 531.213 273.339 530.997 273.215C530.781 273.092 530.593 272.925 530.444 272.725C530.293 272.522 530.185 272.29 530.127 272.043C530.069 271.796 530.062 271.54 530.106 271.291C530.758 267.657 532.253 258.405 532.06 250.99C532.003 248.71 532.719 246.478 534.088 244.662C535.457 242.846 537.399 241.553 539.595 240.996V240.996C540.917 240.645 542.259 240.378 543.614 240.198C545.171 239.999 546.754 240.171 548.234 240.699C549.714 241.227 551.051 242.097 552.137 243.238C553.223 244.38 554.029 245.763 554.49 247.275C554.95 248.787 555.053 250.387 554.789 251.946C553.501 259.63 552.203 270.363 553.331 277.855C553.383 278.191 553.342 278.535 553.212 278.848C553.081 279.162 552.868 279.433 552.594 279.631C552.288 279.857 551.918 279.98 551.539 279.981V279.981Z" fill="#6C63FF"/>
<path id="Path 638" d="M532.43 260.436C532.181 260.435 531.935 260.383 531.706 260.283L526.496 258.012C526.052 257.818 525.703 257.454 525.525 257.001C525.347 256.548 525.355 256.042 525.546 255.595L529.574 246.224C530.057 245.077 530.972 244.171 532.119 243.704C533.266 243.237 534.549 243.248 535.688 243.735C536.826 244.222 537.726 245.144 538.19 246.299C538.653 247.454 538.642 248.747 538.159 249.894L538.133 249.956L534.105 259.327C533.963 259.656 533.73 259.936 533.432 260.133C533.135 260.33 532.786 260.435 532.43 260.436Z" fill="#6C63FF"/>
<path id="Ellipse 98" d="M544.356 237.01C549.857 237.01 554.316 232.518 554.316 226.978C554.316 221.437 549.857 216.946 544.356 216.946C538.856 216.946 534.397 221.437 534.397 226.978C534.397 232.518 538.856 237.01 544.356 237.01Z" fill="#FEB8B8"/>
<path id="Path 639" d="M534.217 222.048C538.935 224.949 544.253 226.714 549.759 227.206L548.121 225.229C549.313 225.673 550.569 225.924 551.839 225.973C552.476 225.992 553.107 225.86 553.684 225.588C554.26 225.316 554.766 224.912 555.159 224.408C555.48 223.884 555.671 223.291 555.715 222.677C555.759 222.064 555.656 221.448 555.413 220.884C554.914 219.758 554.136 218.779 553.156 218.041C551.417 216.656 549.365 215.725 547.183 215.332C545 214.939 542.756 215.096 540.648 215.789C539.202 216.225 537.908 217.061 536.912 218.203C535.968 219.376 534.15 220.422 534.634 221.851L534.217 222.048Z" fill="#2F2E41"/>
<path id="Path 640" d="M545.247 213.597C547.232 211.569 549.635 210.003 552.285 209.011C553.968 208.298 555.813 208.068 557.617 208.345C558.515 208.496 559.356 208.888 560.052 209.478C560.748 210.069 561.274 210.837 561.574 211.703C561.879 213.18 561.651 214.718 560.931 216.042C560.302 217.395 559.461 218.65 558.952 220.053C558.432 221.486 558.276 223.026 558.497 224.534C558.718 226.043 559.31 227.472 560.219 228.691C561.127 229.911 562.324 230.883 563.7 231.519C565.076 232.154 566.588 232.434 568.098 232.331C566.382 232.733 564.69 233.235 563.031 233.835C561.323 234.275 559.307 234.246 558.038 233.013C556.694 231.708 556.667 229.588 556.733 227.71L557.022 219.334C557.165 217.912 557.023 216.476 556.603 215.111C556.381 214.433 555.965 213.835 555.407 213.394C554.849 212.953 554.175 212.687 553.467 212.631C552.395 212.752 551.387 213.21 550.587 213.939C549.789 214.668 548.807 215.163 547.75 215.369C546.682 215.465 545.463 214.67 545.543 213.592" fill="#2F2E41"/>
<path id="Path 641" d="M527.612 277.404C526.952 277.403 526.3 277.255 525.704 276.97C525.108 276.685 524.582 276.27 524.164 275.756C523.746 275.241 523.446 274.64 523.287 273.995C523.128 273.35 523.112 272.677 523.242 272.026C523.372 271.374 523.643 270.759 524.037 270.226C524.431 269.693 524.937 269.254 525.52 268.941C526.102 268.629 526.746 268.451 527.406 268.419C528.065 268.388 528.723 268.504 529.332 268.759V268.759C529.515 268.837 529.693 268.928 529.864 269.031L548.006 260.827L548.516 255.871L556.337 255.66L556.285 263.911C556.275 264.867 555.96 265.795 555.386 266.556C554.812 267.317 554.009 267.871 553.097 268.136L531.881 274.218C531.84 274.359 531.792 274.498 531.736 274.634C531.396 275.453 530.823 276.153 530.09 276.645C529.356 277.138 528.495 277.402 527.614 277.403L527.612 277.404Z" fill="#FEB8B8"/>
<path id="Path 642" d="M555.674 259.703C555.452 259.816 555.209 259.882 554.96 259.897L549.294 260.248C548.811 260.278 548.336 260.113 547.974 259.79C547.611 259.467 547.391 259.013 547.36 258.527L546.738 248.334C546.701 247.719 546.784 247.102 546.983 246.518C547.182 245.935 547.494 245.397 547.899 244.935C548.305 244.473 548.797 244.095 549.347 243.825C549.898 243.554 550.495 243.395 551.107 243.358C551.718 243.32 552.331 243.403 552.91 243.604C553.489 243.805 554.023 244.118 554.482 244.527C554.941 244.935 555.315 245.431 555.584 245.985C555.852 246.54 556.01 247.142 556.048 247.758L556.67 257.95C556.691 258.308 556.609 258.664 556.432 258.976C556.255 259.287 555.992 259.54 555.675 259.703H555.674Z" fill="#6C63FF"/>
<path id="Rectangle 91" d="M544.264 275.575H510.419C510.135 275.575 509.905 275.807 509.905 276.093V277.916C509.905 278.202 510.135 278.434 510.419 278.434H544.264C544.548 278.434 544.778 278.202 544.778 277.916V276.093C544.778 275.807 544.548 275.575 544.264 275.575Z" fill="#404047"/>
<path id="Path 643" d="M496.9 275.779V255.765C496.901 255.061 497.179 254.386 497.673 253.889C498.167 253.391 498.837 253.111 499.536 253.11H535.626C536.324 253.111 536.995 253.391 537.489 253.888C537.983 254.386 538.261 255.061 538.261 255.765V275.779C538.261 276.483 537.983 277.158 537.489 277.656C536.995 278.153 536.324 278.433 535.626 278.434H499.536C498.837 278.433 498.167 278.153 497.673 277.656C497.179 277.158 496.901 276.483 496.9 275.779Z" fill="#404047"/>
<path id="Ellipse 99" d="M518.015 268.224C519.359 268.224 520.448 267.127 520.448 265.773C520.448 264.42 519.359 263.322 518.015 263.322C516.671 263.322 515.582 264.42 515.582 265.773C515.582 267.127 516.671 268.224 518.015 268.224Z" fill="white"/>
<path id="Vector_39" d="M485.314 34.0673H462.883C462.012 34.0683 461.177 34.4172 460.562 35.0375C459.946 35.6577 459.599 36.4986 459.598 37.3758V59.9696C459.599 60.8467 459.946 61.6877 460.562 62.3079C461.177 62.9281 462.012 63.277 462.883 63.278H465.348V64.7889C465.348 65.1896 465.506 65.5739 465.788 65.8573C466.069 66.1406 466.451 66.2998 466.848 66.2998C467.246 66.2998 467.628 66.1406 467.909 65.8573C468.19 65.5739 468.348 65.1896 468.348 64.7889V63.278H480.598V64.7889C480.598 65.1896 480.756 65.5739 481.038 65.8573C481.319 66.1406 481.701 66.2998 482.098 66.2998C482.496 66.2998 482.878 66.1406 483.159 65.8573C483.44 65.5739 483.598 65.1896 483.598 64.7889V63.278H485.314C486.185 63.277 487.019 62.9281 487.635 62.3079C488.251 61.6877 488.597 60.8467 488.598 59.9696V37.3758C488.597 36.4986 488.251 35.6577 487.635 35.0375C487.019 34.4172 486.185 34.0683 485.314 34.0673V34.0673Z" fill="#44DAE3"/>
<path id="Vector_40" d="M485.438 36.4461H462.387V51.5369H485.438V36.4461Z" fill="#BBBC9E"/>
<path id="Vector_41" d="M466.848 60.8438C468.902 60.8438 470.566 59.1672 470.566 57.0989C470.566 55.0306 468.902 53.3539 466.848 53.3539C464.795 53.3539 463.13 55.0306 463.13 57.0989C463.13 59.1672 464.795 60.8438 466.848 60.8438Z" fill="#B7E6F4"/>
<path id="Vector_42" d="M481.72 60.8438C483.774 60.8438 485.438 59.1672 485.438 57.0989C485.438 55.0306 483.774 53.3539 481.72 53.3539C479.667 53.3539 478.002 55.0306 478.002 57.0989C478.002 59.1672 479.667 60.8438 481.72 60.8438Z" fill="#B7E6F4"/>
</g>
</g>
<defs>
<clipPath id="clip0">
<rect width="955" height="473" fill="white"/>
</clipPath>
</defs>
</svg>
