<svg width="829" height="365" viewBox="0 0 829 365" fill="none" xmlns="http://www.w3.org/2000/svg">
<g id="undraw_On_the_way_re_swjt 1" clip-path="url(#clip0)">
<g id="left-wheel">
<path id="Vector" d="M316.26 363.329C352.02 363.329 381.01 334.339 381.01 298.579C381.01 262.819 352.02 233.829 316.26 233.829C280.499 233.829 251.51 262.819 251.51 298.579C251.51 334.339 280.499 363.329 316.26 363.329Z" fill="#2C2B3F"/>
<path id="Vector_2" d="M316.5 339C337.763 339 355 321.315 355 299.5C355 277.685 337.763 260 316.5 260C295.237 260 278 277.685 278 299.5C278 321.315 295.237 339 316.5 339Z" fill="#EEE7E7"/>
<path id="Vector_3" d="M301.502 308.66L285.284 315.15C284.711 315.379 284.097 315.561 283.578 315.656C283.059 315.751 282.677 315.751 282.516 315.655C282.356 315.559 282.43 315.377 282.722 315.147C283.013 314.917 283.5 314.659 284.073 314.429L300.291 307.939C300.575 307.826 300.871 307.722 301.164 307.636C301.457 307.549 301.74 307.48 301.997 307.433C302.254 307.386 302.48 307.362 302.662 307.362C302.844 307.362 302.979 307.387 303.058 307.434C303.138 307.481 303.161 307.551 303.126 307.638C303.09 307.725 302.998 307.828 302.853 307.942C302.709 308.056 302.515 308.178 302.283 308.301C302.051 308.424 301.785 308.546 301.502 308.66Z" fill="black"/>
<path id="Vector_4" d="M316.26 314.449C325.025 314.449 332.13 307.344 332.13 298.579C332.13 289.814 325.025 282.709 316.26 282.709C307.495 282.709 300.39 289.814 300.39 298.579C300.39 307.344 307.495 314.449 316.26 314.449Z" fill="white"/>
<path id="Vector_5" d="M353.274 296.094L335.824 296.878C335.206 296.905 334.567 296.875 334.046 296.794C333.524 296.712 333.164 296.586 333.044 296.443C332.924 296.299 333.054 296.151 333.405 296.03C333.756 295.91 334.301 295.826 334.918 295.799L352.368 295.015C352.673 295.001 352.988 295.002 353.293 295.016C353.598 295.031 353.888 295.059 354.146 295.099C354.404 295.14 354.625 295.192 354.797 295.252C354.969 295.312 355.088 295.379 355.148 295.45C355.207 295.521 355.206 295.594 355.144 295.665C355.082 295.735 354.96 295.803 354.786 295.862C354.612 295.922 354.389 295.973 354.13 296.013C353.87 296.053 353.579 296.081 353.274 296.094Z" fill="black"/>
<path id="Vector_6" d="M343.766 274.94L329.389 284.861C328.881 285.212 328.323 285.525 327.837 285.733C327.352 285.94 326.98 286.024 326.802 285.966C326.624 285.909 326.656 285.714 326.89 285.425C327.123 285.137 327.54 284.777 328.049 284.427L342.426 274.506C342.678 274.332 342.944 274.166 343.211 274.016C343.477 273.867 343.738 273.737 343.978 273.634C344.218 273.531 344.433 273.458 344.611 273.418C344.788 273.378 344.925 273.372 345.013 273.4C345.101 273.429 345.139 273.491 345.124 273.584C345.109 273.677 345.041 273.798 344.926 273.941C344.81 274.084 344.648 274.246 344.449 274.417C344.25 274.589 344.018 274.766 343.766 274.94Z" fill="black"/>
<path id="Vector_7" d="M345.943 320.985L332.155 310.26C331.667 309.881 331.2 309.443 330.856 309.043C330.513 308.643 330.32 308.313 330.322 308.126C330.323 307.939 330.518 307.911 330.864 308.047C331.21 308.183 331.678 308.472 332.166 308.851L345.953 319.576C346.195 319.764 346.434 319.968 346.656 320.177C346.879 320.386 347.081 320.596 347.252 320.794C347.422 320.992 347.557 321.175 347.648 321.332C347.74 321.49 347.787 321.618 347.786 321.711C347.786 321.803 347.737 321.858 347.644 321.872C347.551 321.885 347.415 321.858 347.244 321.79C347.073 321.723 346.87 321.617 346.646 321.479C346.423 321.341 346.184 321.173 345.943 320.985Z" fill="black"/>
<path id="Vector_8" d="M325.786 333.681L319.849 317.254C319.639 316.673 319.477 316.053 319.4 315.531C319.323 315.009 319.337 314.628 319.437 314.47C319.538 314.313 319.719 314.393 319.938 314.693C320.158 314.992 320.4 315.487 320.61 316.068L326.547 332.496C326.651 332.783 326.744 333.083 326.821 333.379C326.898 333.675 326.957 333.96 326.996 334.218C327.034 334.477 327.05 334.703 327.044 334.885C327.037 335.067 327.008 335.201 326.958 335.279C326.908 335.357 326.839 335.377 326.753 335.339C326.667 335.301 326.566 335.205 326.458 335.057C326.349 334.908 326.233 334.711 326.118 334.475C326.003 334.239 325.89 333.969 325.786 333.681Z" fill="black"/>
<path id="Vector_9" d="M298.683 297.649L282.351 291.453C281.774 291.234 281.199 290.953 280.752 290.671C280.306 290.39 280.025 290.131 279.972 289.952C279.918 289.773 280.096 289.688 280.467 289.717C280.837 289.745 281.37 289.884 281.947 290.103L298.279 296.299C298.565 296.408 298.854 296.533 299.128 296.667C299.402 296.801 299.657 296.942 299.878 297.081C300.099 297.221 300.282 297.356 300.416 297.479C300.55 297.603 300.632 297.712 300.659 297.8C300.685 297.889 300.655 297.956 300.57 297.996C300.486 298.036 300.347 298.05 300.164 298.036C299.98 298.022 299.755 297.98 299.501 297.914C299.247 297.848 298.969 297.758 298.683 297.649Z" fill="black"/>
<path id="Vector_10" d="M304.639 285.358L291.966 273.336C291.518 272.911 291.096 272.429 290.793 271.997C290.49 271.565 290.331 271.218 290.351 271.032C290.37 270.846 290.567 270.837 290.898 271.006C291.229 271.176 291.666 271.509 292.114 271.935L304.787 283.957C305.009 284.167 305.227 284.394 305.428 284.623C305.629 284.853 305.81 285.081 305.96 285.295C306.11 285.509 306.226 285.705 306.302 285.87C306.378 286.036 306.412 286.168 306.403 286.26C306.393 286.352 306.339 286.402 306.245 286.406C306.152 286.411 306.019 286.37 305.855 286.286C305.691 286.202 305.5 286.077 305.291 285.918C305.082 285.759 304.86 285.568 304.639 285.358Z" fill="black"/>
<path id="Vector_11" d="M301.4 332.346L306.568 315.66C306.751 315.07 306.996 314.478 307.249 314.016C307.502 313.553 307.743 313.256 307.918 313.192C308.094 313.127 308.189 313.3 308.184 313.671C308.179 314.043 308.073 314.583 307.89 315.173L302.722 331.859C302.632 332.151 302.525 332.446 302.408 332.729C302.291 333.011 302.167 333.274 302.041 333.503C301.916 333.732 301.792 333.923 301.678 334.065C301.563 334.206 301.459 334.295 301.372 334.327C301.285 334.359 301.217 334.333 301.172 334.251C301.126 334.169 301.104 334.032 301.107 333.848C301.109 333.664 301.136 333.436 301.187 333.179C301.237 332.921 301.31 332.638 301.4 332.346Z" fill="black"/>
<path id="Vector_12" d="M316.073 281.14L317.323 263.717C317.367 263.101 317.472 262.469 317.614 261.961C317.755 261.453 317.922 261.11 318.079 261.007C318.235 260.904 318.367 261.051 318.446 261.414C318.525 261.777 318.545 262.327 318.5 262.943L317.25 280.366C317.228 280.671 317.191 280.983 317.141 281.284C317.092 281.586 317.03 281.87 316.96 282.122C316.89 282.374 316.812 282.588 316.733 282.751C316.653 282.915 316.572 283.025 316.495 283.076C316.417 283.127 316.345 283.117 316.282 283.048C316.219 282.978 316.167 282.849 316.127 282.67C316.088 282.49 316.063 282.262 316.054 282C316.044 281.737 316.051 281.445 316.073 281.14Z" fill="black"/>
</g>
<g id="right-wheel">
<path id="Vector_13" d="M600.26 363.329C631.326 363.329 656.51 338.145 656.51 307.079C656.51 276.013 631.326 250.829 600.26 250.829C569.194 250.829 544.01 276.013 544.01 307.079C544.01 338.145 569.194 363.329 600.26 363.329Z" fill="#2C2B3F"/>
<path id="Vector_14" d="M601.5 346C622.763 346 640 328.315 640 306.5C640 284.685 622.763 267 601.5 267C580.237 267 563 284.685 563 306.5C563 328.315 580.237 346 601.5 346Z" fill="#EEE7E7"/>
<path id="Vector_15" d="M586.502 315.66L570.284 322.15C569.711 322.379 569.097 322.561 568.578 322.656C568.059 322.751 567.677 322.751 567.516 322.655C567.356 322.559 567.43 322.377 567.722 322.147C568.013 321.917 568.5 321.659 569.073 321.429L585.291 314.939C585.575 314.826 585.871 314.722 586.164 314.636C586.457 314.549 586.74 314.48 586.997 314.433C587.254 314.386 587.48 314.362 587.662 314.362C587.844 314.362 587.979 314.387 588.058 314.434C588.138 314.481 588.161 314.551 588.126 314.638C588.09 314.725 587.998 314.828 587.853 314.942C587.709 315.056 587.515 315.178 587.283 315.301C587.051 315.424 586.785 315.546 586.502 315.66Z" fill="black"/>
<path id="Vector_16" d="M601.26 321.449C610.025 321.449 617.13 314.344 617.13 305.579C617.13 296.814 610.025 289.709 601.26 289.709C592.495 289.709 585.39 296.814 585.39 305.579C585.39 314.344 592.495 321.449 601.26 321.449Z" fill="white"/>
<path id="Vector_17" d="M628.766 281.94L614.389 291.861C613.881 292.212 613.323 292.525 612.837 292.733C612.352 292.94 611.98 293.024 611.802 292.966C611.624 292.909 611.656 292.714 611.89 292.425C612.123 292.137 612.54 291.777 613.049 291.427L627.426 281.506C627.678 281.332 627.944 281.166 628.211 281.016C628.477 280.867 628.738 280.737 628.978 280.634C629.218 280.531 629.433 280.458 629.611 280.418C629.788 280.378 629.925 280.372 630.013 280.4C630.101 280.429 630.139 280.491 630.124 280.584C630.109 280.677 630.041 280.798 629.926 280.941C629.81 281.084 629.648 281.246 629.449 281.417C629.25 281.589 629.018 281.766 628.766 281.94Z" fill="black"/>
<path id="Vector_18" d="M638.274 303.094L620.824 303.878C620.206 303.905 619.567 303.875 619.046 303.794C618.524 303.712 618.164 303.586 618.044 303.443C617.924 303.299 618.054 303.151 618.405 303.03C618.756 302.91 619.301 302.826 619.918 302.799L637.368 302.015C637.673 302.001 637.988 302.002 638.293 302.016C638.598 302.031 638.888 302.059 639.146 302.099C639.404 302.14 639.625 302.192 639.797 302.252C639.969 302.312 640.088 302.379 640.148 302.45C640.207 302.521 640.206 302.594 640.144 302.665C640.082 302.735 639.96 302.803 639.786 302.862C639.612 302.922 639.389 302.973 639.13 303.013C638.87 303.053 638.579 303.081 638.274 303.094Z" fill="black"/>
<path id="Vector_19" d="M630.942 327.985L617.155 317.26C616.667 316.881 616.2 316.443 615.856 316.043C615.513 315.643 615.32 315.313 615.322 315.126C615.323 314.939 615.518 314.911 615.864 315.047C616.21 315.183 616.678 315.472 617.165 315.851L630.953 326.576C631.195 326.764 631.434 326.968 631.656 327.177C631.879 327.386 632.081 327.596 632.252 327.794C632.422 327.992 632.557 328.175 632.648 328.332C632.74 328.49 632.787 328.618 632.786 328.711C632.786 328.803 632.737 328.858 632.644 328.872C632.551 328.885 632.415 328.858 632.244 328.79C632.073 328.723 631.87 328.617 631.646 328.479C631.423 328.341 631.184 328.173 630.942 327.985Z" fill="black"/>
<path id="Vector_20" d="M586.4 339.346L591.568 322.66C591.751 322.07 591.996 321.478 592.249 321.016C592.502 320.553 592.743 320.256 592.918 320.192C593.094 320.127 593.189 320.3 593.184 320.671C593.179 321.043 593.073 321.583 592.89 322.173L587.722 338.859C587.632 339.151 587.525 339.446 587.408 339.729C587.291 340.011 587.167 340.274 587.041 340.503C586.916 340.732 586.792 340.923 586.678 341.065C586.563 341.206 586.459 341.295 586.372 341.327C586.285 341.359 586.217 341.333 586.172 341.251C586.126 341.169 586.104 341.032 586.107 340.848C586.109 340.664 586.136 340.436 586.187 340.179C586.237 339.921 586.31 339.638 586.4 339.346Z" fill="black"/>
<path id="Vector_21" d="M589.639 292.358L576.966 280.336C576.518 279.911 576.096 279.429 575.793 278.997C575.49 278.565 575.331 278.218 575.35 278.032C575.37 277.846 575.567 277.837 575.898 278.006C576.229 278.176 576.666 278.509 577.114 278.935L589.787 290.957C590.009 291.167 590.227 291.394 590.428 291.623C590.629 291.853 590.81 292.081 590.96 292.295C591.11 292.509 591.226 292.705 591.302 292.87C591.378 293.036 591.412 293.168 591.403 293.26C591.393 293.352 591.339 293.402 591.245 293.406C591.152 293.411 591.019 293.37 590.855 293.286C590.691 293.202 590.5 293.077 590.291 292.918C590.082 292.759 589.86 292.568 589.639 292.358Z" fill="black"/>
<path id="Vector_22" d="M601.073 288.14L602.323 270.717C602.367 270.101 602.472 269.469 602.614 268.961C602.755 268.453 602.922 268.11 603.079 268.007C603.235 267.904 603.367 268.051 603.446 268.414C603.525 268.777 603.545 269.327 603.5 269.943L602.25 287.366C602.228 287.671 602.191 287.983 602.141 288.284C602.092 288.586 602.03 288.87 601.96 289.122C601.89 289.374 601.812 289.588 601.733 289.751C601.653 289.915 601.572 290.025 601.495 290.076C601.417 290.127 601.345 290.117 601.282 290.048C601.219 289.978 601.167 289.849 601.127 289.67C601.088 289.49 601.063 289.262 601.054 289C601.044 288.737 601.051 288.445 601.073 288.14Z" fill="black"/>
<path id="Vector_23" d="M610.786 340.681L604.849 324.254C604.639 323.673 604.477 323.053 604.4 322.531C604.323 322.009 604.337 321.628 604.437 321.47C604.538 321.313 604.719 321.393 604.938 321.693C605.158 321.992 605.4 322.487 605.61 323.068L611.547 339.496C611.651 339.783 611.744 340.083 611.821 340.379C611.898 340.675 611.957 340.96 611.996 341.218C612.034 341.477 612.05 341.703 612.044 341.885C612.037 342.067 612.008 342.201 611.958 342.279C611.908 342.357 611.839 342.377 611.753 342.339C611.667 342.301 611.566 342.205 611.458 342.057C611.349 341.908 611.233 341.711 611.118 341.475C611.003 341.239 610.89 340.969 610.786 340.681Z" fill="black"/>
<path id="Vector_24" d="M583.683 304.649L567.351 298.453C566.774 298.234 566.199 297.953 565.752 297.671C565.306 297.39 565.025 297.131 564.972 296.952C564.918 296.773 565.096 296.688 565.467 296.717C565.837 296.745 566.37 296.884 566.947 297.103L583.279 303.299C583.565 303.408 583.854 303.533 584.128 303.667C584.402 303.801 584.657 303.942 584.878 304.081C585.099 304.221 585.282 304.356 585.416 304.479C585.55 304.603 585.632 304.712 585.659 304.8C585.685 304.889 585.655 304.956 585.57 304.996C585.485 305.036 585.347 305.05 585.164 305.036C584.98 305.022 584.755 304.98 584.501 304.914C584.247 304.848 583.969 304.758 583.683 304.649Z" fill="black"/>
</g>
<g id="hair">
<path id="Vector_25" d="M390.908 20.484C386.503 24.0698 379.783 22.4771 375.054 19.3301C370.326 16.183 366.489 11.7018 361.373 9.23441C352.354 4.88446 341.449 7.77618 332.672 12.5945C323.894 17.4129 316.112 24.0695 306.84 27.8507C297.568 31.6319 285.736 31.8187 278.715 24.6791C276.988 29.6849 276.846 35.1019 278.311 40.191C279.776 45.28 282.775 49.7933 286.899 53.115C291.023 56.4367 296.072 58.405 301.356 58.7514C306.64 59.0978 311.903 57.8054 316.426 55.0505C326.585 48.8621 332.197 35.8868 343.591 32.4712C349.897 30.5811 356.668 32.1034 363.041 33.7522C369.414 35.4011 376.058 37.1827 382.49 35.779C388.921 34.3753 394.937 28.5959 394.119 22.0642L390.908 20.484Z" fill="#6F472A"/>
</g>
<g id="motorgirl">
<path id="Vector_26" d="M406.51 212.508H310.529L309.511 182.998C309.467 181.718 309.701 180.445 310.196 179.264C310.692 178.084 311.437 177.025 312.381 176.16C313.324 175.296 314.444 174.646 315.663 174.255C316.882 173.865 318.172 173.743 319.442 173.899L375.297 180.738H375.303C383.584 180.761 391.518 184.064 397.367 189.926C403.217 195.787 406.504 203.728 406.51 212.008V212.508Z" fill="#FCFF63"/>
<path id="Vector_27" d="M363.731 107.829H296.789C295.898 107.829 295.017 108.004 294.194 108.345C293.372 108.685 292.624 109.184 291.995 109.814C291.365 110.444 290.866 111.191 290.525 112.013C290.185 112.836 290.01 113.718 290.01 114.608V181.55C290.01 182.44 290.185 183.322 290.525 184.145C290.866 184.967 291.365 185.715 291.995 186.344C292.624 186.974 293.372 187.473 294.194 187.813C295.017 188.154 295.898 188.329 296.789 188.329H363.731C364.621 188.329 365.503 188.154 366.325 187.814C367.148 187.473 367.895 186.974 368.525 186.344C369.154 185.715 369.654 184.967 369.994 184.145C370.335 183.322 370.51 182.44 370.51 181.55V114.608C370.51 113.718 370.335 112.836 369.994 112.013C369.654 111.191 369.154 110.444 368.525 109.814C367.895 109.184 367.148 108.685 366.325 108.345C365.503 108.004 364.621 107.829 363.731 107.829V107.829Z" fill="#CCCCCC"/>
<path id="Vector_28" d="M348.654 157.886L317.048 164.041C315.173 164.404 313.231 164.008 311.648 162.941C310.064 161.873 308.969 160.222 308.602 158.348L306.172 145.871C305.809 143.997 306.205 142.054 307.272 140.471C308.339 138.887 309.991 137.792 311.865 137.425L343.471 131.27C345.346 130.907 347.288 131.303 348.872 132.37C350.455 133.437 351.551 135.089 351.918 136.963L354.348 149.439C354.71 151.314 354.315 153.256 353.248 154.84C352.18 156.423 350.528 157.519 348.654 157.886Z" fill="#3F3D56"/>
<path id="Vector_29" d="M342.331 143.146L318.21 147.844C317.769 147.93 317.312 147.837 316.939 147.585C316.567 147.334 316.309 146.945 316.223 146.504C316.137 146.063 316.23 145.606 316.481 145.233C316.732 144.86 317.121 144.603 317.563 144.517L341.683 139.819C342.124 139.734 342.582 139.826 342.954 140.078C343.327 140.329 343.585 140.718 343.671 141.159C343.756 141.6 343.664 142.057 343.412 142.43C343.161 142.803 342.772 143.06 342.331 143.146V143.146Z" fill="white"/>
<path id="Vector_30" d="M337.643 150.102L325.166 152.532C324.725 152.618 324.268 152.525 323.895 152.274C323.523 152.023 323.265 151.634 323.179 151.192C323.093 150.751 323.186 150.294 323.437 149.921C323.688 149.549 324.077 149.291 324.519 149.205L336.995 146.775C337.213 146.733 337.438 146.734 337.656 146.778C337.874 146.822 338.081 146.909 338.266 147.034C338.45 147.158 338.609 147.317 338.732 147.503C338.854 147.689 338.94 147.897 338.982 148.115C339.025 148.333 339.024 148.558 338.979 148.776C338.935 148.994 338.848 149.202 338.724 149.386C338.6 149.571 338.44 149.729 338.255 149.852C338.069 149.975 337.861 150.06 337.643 150.102Z" fill="white"/>
<path id="Vector_31" d="M370.51 114.608V123.505H290.01V114.608C290.01 113.718 290.185 112.836 290.525 112.013C290.866 111.191 291.365 110.444 291.995 109.814C292.624 109.184 293.372 108.685 294.194 108.345C295.017 108.004 295.898 107.829 296.789 107.829H363.731C364.621 107.829 365.503 108.004 366.325 108.345C367.148 108.685 367.895 109.184 368.525 109.814C369.154 110.444 369.654 111.191 369.994 112.013C370.335 112.836 370.51 113.718 370.51 114.608Z" fill="#B3B3B3"/>
<path id="Vector_32" d="M531.26 126.292C530.796 124.791 530.008 123.411 528.952 122.249C527.896 121.086 526.598 120.169 525.15 119.562C523.701 118.955 522.137 118.673 520.568 118.736C518.999 118.799 517.462 119.206 516.067 119.927L423.971 86.884L419.914 109.891L511.718 135.137C513.084 137.4 515.234 139.084 517.759 139.869C520.284 140.653 523.009 140.485 525.418 139.394C527.827 138.304 529.752 136.368 530.829 133.953C531.906 131.538 532.059 128.812 531.26 126.292V126.292Z" fill="#FFB8B8"/>
<path id="Vector_33" opacity="0.2" d="M531.26 126.292C530.796 124.791 530.008 123.411 528.952 122.249C527.896 121.086 526.598 120.169 525.15 119.562C523.701 118.955 522.137 118.673 520.568 118.736C518.999 118.799 517.462 119.206 516.067 119.927L423.971 86.884L419.914 109.891L511.718 135.137C513.084 137.4 515.234 139.084 517.759 139.869C520.284 140.653 523.009 140.485 525.418 139.394C527.827 138.304 529.752 136.368 530.829 133.953C531.906 131.538 532.059 128.812 531.26 126.292V126.292Z" fill="black"/>
<path id="Vector_34" d="M440.317 91.0764L431.621 113.797C431.373 114.443 430.989 115.029 430.495 115.513C430.001 115.998 429.408 116.371 428.757 116.606C428.106 116.84 427.412 116.932 426.722 116.875C426.032 116.817 425.363 116.612 424.76 116.272L403.623 104.376C400.323 103.091 397.668 100.55 396.238 97.3101C394.809 94.07 394.723 90.3954 395.998 87.0918C397.274 83.7882 399.807 81.1253 403.043 79.6867C406.279 78.2481 409.954 78.1514 413.261 79.4176L436.863 84.6523C437.539 84.8024 438.174 85.0963 438.726 85.5141C439.278 85.9319 439.733 86.4638 440.061 87.0734C440.389 87.6831 440.582 88.3562 440.626 89.047C440.67 89.7378 440.565 90.43 440.317 91.0764V91.0764Z" fill="#FF6363"/>
<path id="Vector_35" d="M538.51 147.329L505.51 162.329L509.842 178.64C518.209 210.138 520.429 242.952 516.382 275.29V275.29L540.51 280.329L560.51 229.329L553.51 171.329L538.51 147.329Z" fill="#FCFF63"/>
<path id="Vector_36" d="M603.26 222.829C581.578 222.829 563.908 238.591 563.051 258.329H643.469C642.611 238.591 624.942 222.829 603.26 222.829Z" fill="#2C2B3F"/>
<path id="Vector_37" d="M586.381 226.231C585.253 137.132 534.51 145.329 534.51 145.329C534.51 145.329 535.459 173.062 535.915 173.925C568.25 235.104 514.885 306.829 446.955 293.634C445.674 293.385 444.444 293.133 443.264 292.877C434.656 291.08 427.057 286.071 422.011 278.871C416.965 271.67 414.852 262.817 416.1 254.114C422.792 200.378 389.51 201.329 389.51 201.329H340.843L315.57 178.583C314.678 177.78 313.603 177.208 312.438 176.917C311.274 176.626 310.056 176.624 308.891 176.912C307.726 177.2 306.649 177.77 305.755 178.57C304.861 179.371 304.176 180.378 303.761 181.504L300.51 190.329C300.51 190.329 252.51 195.329 256.51 242.329H271.35C271.314 243.665 271.367 245.001 271.51 246.329L382.261 245.429C388.753 245.376 394.483 250.636 394.51 257.128C394.516 258.709 394.204 260.275 393.592 261.732C392.979 263.189 392.079 264.507 390.946 265.609C389.812 266.71 388.468 267.571 386.993 268.141C385.519 268.71 383.945 268.977 382.365 268.924L364.51 268.329C359.01 292.829 372.51 309.329 387.385 319.704C401.39 329.331 418.008 334.435 435.002 334.329H483.51C546.51 334.329 557.51 281.329 557.51 281.329C590.51 267.329 586.381 226.231 586.381 226.231Z" fill="#2C2B3F"/>
<path id="Vector_38" d="M505.604 166.761L493.73 134.512C493.111 132.831 492.83 131.045 492.901 129.255C492.973 127.465 493.396 125.707 494.147 124.081C494.898 122.455 495.962 120.993 497.278 119.778C498.594 118.563 500.136 117.62 501.817 117.001L535.857 104.47C538.814 103.381 541.957 102.885 545.106 103.01C548.255 103.136 551.348 103.881 554.209 105.202C557.071 106.523 559.644 108.395 561.781 110.71C563.919 113.025 565.58 115.739 566.669 118.697C567.651 121.351 568.152 124.159 568.15 126.989C568.137 130.583 567.324 134.128 565.769 137.368C564.215 140.608 561.957 143.461 559.162 145.719C557.143 147.339 554.873 148.619 552.442 149.508L505.604 166.761Z" fill="#2C2B3F"/>
<path id="Vector_39" d="M567.65 126.989C567.647 130.509 566.855 133.984 565.332 137.158C563.809 140.332 561.594 143.124 558.85 145.329C554.639 144.218 550.721 142.204 547.368 139.426C544.014 136.648 541.306 133.173 539.431 129.243C537.556 125.313 536.56 121.021 536.512 116.667C536.463 112.313 537.363 108 539.15 104.029C542.58 103.283 546.133 103.315 549.549 104.122C552.965 104.929 556.157 106.491 558.891 108.693C561.624 110.895 563.83 113.682 565.346 116.848C566.861 120.014 567.649 123.479 567.65 126.989V126.989Z" fill="#FCFF63"/>
<path id="Vector_40" d="M265.01 248.829C272.742 248.829 279.01 241.218 279.01 231.829C279.01 222.44 272.742 214.829 265.01 214.829C257.278 214.829 251.01 222.44 251.01 231.829C251.01 241.218 257.278 248.829 265.01 248.829Z" fill="#FCFF63"/>
<path id="Vector_41" d="M450.071 292.005H462.331L468.164 260.208L450.069 260.209L450.071 292.005Z" fill="#FFB8B8"/>
<path id="Vector_42" d="M446.944 288.002L471.087 288.001H471.088C473.109 288.001 475.11 288.399 476.977 289.173C478.843 289.946 480.54 291.079 481.968 292.508C483.397 293.937 484.53 295.633 485.304 297.5C486.077 299.366 486.475 301.367 486.475 303.388V303.888L446.944 303.889L446.944 288.002Z" fill="#2F2E41"/>
<path id="Vector_43" d="M464.301 278.955C464.159 278.955 464.015 278.948 463.871 278.934L446.905 277.699C446.218 277.635 445.556 277.415 444.969 277.054C444.381 276.694 443.884 276.204 443.516 275.622C443.148 275.039 442.919 274.38 442.846 273.694C442.773 273.009 442.858 272.316 443.095 271.669L465.802 220.655C465.964 220.2 466.03 219.716 465.997 219.235C465.963 218.753 465.83 218.284 465.606 217.856C465.382 217.423 465.069 217.043 464.688 216.739C464.307 216.436 463.866 216.217 463.394 216.096C452.717 213.305 425.322 205.873 401.608 197.178C391.448 193.453 385.049 188.069 382.589 181.176C379.346 172.089 384.144 163.802 384.35 163.455L384.511 163.182L406.825 165.21L431.017 167.268L484.03 195.696C488.472 198.098 491.846 202.085 493.48 206.864C495.115 211.642 494.889 216.86 492.848 221.48L468.408 276.288C468.054 277.081 467.478 277.756 466.749 278.229C466.021 278.702 465.17 278.954 464.301 278.955Z" fill="#2F2E41"/>
<path id="Vector_44" d="M410.705 64.2812C424.27 64.2812 435.266 53.2849 435.266 39.7202C435.266 26.1555 424.27 15.1592 410.705 15.1592C397.141 15.1592 386.144 26.1555 386.144 39.7202C386.144 53.2849 397.141 64.2812 410.705 64.2812Z" fill="#FFB8B8"/>
<path id="Vector_45" d="M443.071 295.005H455.331L461.164 263.208L443.069 263.209L443.071 295.005Z" fill="#FFB8B8"/>
<path id="Vector_46" d="M439.944 291.002L464.087 291.001H464.088C466.109 291.001 468.11 291.399 469.977 292.173C471.843 292.946 473.54 294.079 474.968 295.508C476.397 296.937 477.53 298.633 478.304 300.5C479.077 302.366 479.475 304.367 479.475 306.388V306.888L439.944 306.889L439.944 291.002Z" fill="#2F2E41"/>
<path id="Vector_47" d="M457.301 281.955C457.159 281.955 457.015 281.948 456.871 281.934L439.905 280.699C439.218 280.635 438.556 280.415 437.969 280.054C437.381 279.694 436.884 279.204 436.516 278.622C436.148 278.039 435.919 277.38 435.846 276.694C435.773 276.009 435.858 275.316 436.095 274.669L458.802 223.655C458.964 223.2 459.03 222.716 458.997 222.235C458.963 221.753 458.83 221.284 458.606 220.856C458.382 220.423 458.069 220.043 457.688 219.739C457.307 219.436 456.866 219.217 456.394 219.096C445.717 216.305 418.322 208.873 394.608 200.178C384.448 196.453 378.049 191.069 375.589 184.176C372.346 175.089 377.144 166.802 377.35 166.455L377.511 166.182L399.825 168.21L424.017 170.268L477.03 198.696C481.472 201.098 484.846 205.085 486.48 209.864C488.115 214.642 487.889 219.86 485.848 224.48L461.408 279.288C461.054 280.081 460.478 280.756 459.749 281.229C459.021 281.702 458.17 281.954 457.301 281.955Z" fill="#2F2E41"/>
<path id="Vector_48" d="M418.28 78.2084L392.28 69.2084C392.28 69.2084 375.958 81.7484 383.799 112.857C387.893 128.91 386.7 145.855 380.399 161.177C379.64 163.073 378.766 164.92 377.78 166.708C377.78 166.708 406.78 201.708 433.78 175.708L423.28 125.208C423.28 125.208 439.78 91.7084 418.28 78.2084Z" fill="#FF6363"/>
<path id="Vector_49" d="M413.755 65.1165C410.259 59.8842 407.5 52.629 411.349 47.6506C415.148 42.7365 422.641 43.4604 428.46 41.286C436.564 38.2573 441.264 28.7367 439.798 20.2103C438.332 11.684 431.488 4.61589 423.334 1.72386C415.18 -1.16817 405.985 -0.227612 398.001 3.10274C388.171 7.20244 379.74 15.133 376.204 25.179C372.668 35.225 374.558 47.2871 381.893 55.0086C389.757 63.287 402.099 65.4932 413.516 65.3593" fill="#6F472A"/>
<path id="Vector_50" d="M530.038 125.291C529.392 123.86 528.44 122.588 527.249 121.564C526.057 120.541 524.656 119.791 523.144 119.367C521.632 118.944 520.045 118.857 518.495 119.113C516.946 119.369 515.471 119.962 514.176 120.85L418.706 99.4225L417.519 122.754L511.736 136.48C513.372 138.558 515.712 139.963 518.315 140.43C520.918 140.898 523.601 140.394 525.857 139.015C528.113 137.636 529.785 135.477 530.555 132.948C531.326 130.418 531.142 127.694 530.038 125.291V125.291Z" fill="#FFB8B8"/>
<path id="Vector_51" d="M435.445 101.566L429.618 125.186C429.452 125.858 429.144 126.486 428.713 127.028C428.283 127.57 427.74 128.013 427.123 128.326C426.506 128.64 425.828 128.817 425.137 128.845C424.445 128.873 423.756 128.751 423.115 128.489L400.673 119.291C397.237 118.425 394.285 116.232 392.465 113.192C390.645 110.153 390.105 106.515 390.964 103.078C391.822 99.6402 394.01 96.6839 397.046 94.8573C400.081 93.0307 403.718 92.483 407.157 93.3344L431.225 95.6169C431.914 95.6825 432.581 95.8958 433.18 96.2423C433.779 96.5889 434.297 97.0604 434.697 97.625C435.098 98.1895 435.372 98.8338 435.501 99.5139C435.63 100.194 435.611 100.894 435.445 101.566V101.566Z" fill="#FF6363"/>
<path id="Vector_52" d="M519.01 143.829C522.876 143.829 526.01 140.695 526.01 136.829C526.01 132.963 522.876 129.829 519.01 129.829C515.144 129.829 512.01 132.963 512.01 136.829C512.01 140.695 515.144 143.829 519.01 143.829Z" fill="#FCFF63"/>
</g>
</g>
<defs>
<clipPath id="clip0">
<rect width="829" height="364.829" fill="white"/>
</clipPath>
</defs>
</svg>
